Coordinates
version=1
nRows=16
nColumns=40
inDegrees=yes

Units are S.I. units (second, meters, Newtons, ...)
Angles are in degrees.

endheader
time	pelvis_tilt	pelvis_list	pelvis_rotation	pelvis_tx	pelvis_ty	pelvis_tz	hip_flexion_r	hip_adduction_r	hip_rotation_r	knee_angle_r	knee_angle_r_beta	ankle_angle_r	subtalar_angle_r	mtp_angle_r	hip_flexion_l	hip_adduction_l	hip_rotation_l	knee_angle_l	knee_angle_l_beta	ankle_angle_l	subtalar_angle_l	mtp_angle_l	lumbar_extension	lumbar_bending	lumbar_rotation	arm_flex_r	arm_add_r	arm_rot_r	elbow_flex_r	pro_sup_r	wrist_flex_r	wrist_dev_r	arm_flex_l	arm_add_l	arm_rot_l	elbow_flex_l	pro_sup_l	wrist_flex_l	wrist_dev_l
     38.12000000	     -4.36082212	     -4.51690985	     -0.37077364	      0.92023685	      0.91844718	      0.41283335	     18.84306835	     -7.26809774	     -7.79563668	     60.90233258	     60.90233258	      5.51480762	    -18.53075102	      7.67872486	     20.45375281	     -2.24314170	     -1.38643323	     31.13886384	     31.13886384	     17.59642968	    -14.94271015	      5.39967461	    -10.06392225	      4.76531039	      2.79680351	     16.02510410	    -13.35856972	    -10.18949682	     28.77896030	     45.29277932	      0.00000000	      0.00000000	     12.13842805	    -14.29326672	     13.72726978	     29.72578550	     44.67601736	      0.00000000	      0.00000000
     38.14014286	     -4.07964077	     -4.62229183	     -0.67485813	      0.91930527	      0.91686332	      0.41092571	     20.45797914	     -7.01965902	     -7.09873552	     62.55889397	     62.55889397	      5.92018638	    -18.60544204	      7.51064771	     20.20967044	     -2.25299347	     -1.44331256	     32.04805660	     32.04805660	     18.26799610	    -15.31703501	      5.11845811	    -10.30590437	      5.07069613	      2.16113853	     12.96416041	    -13.11388115	    -10.17828475	     27.46947562	     45.33560405	      0.00000000	      0.00000000	     13.77555932	    -14.57391688	     13.46176986	     30.58958335	     44.75247942	      0.00000000	      0.00000000
     38.16028571	     -3.70469047	     -4.75384565	     -1.01348608	      0.91841140	      0.91556619	      0.40911754	     21.94193284	     -6.66595776	     -6.37853967	     63.91631261	     63.91631261	      6.48413666	    -18.64214761	      8.04408872	     19.77190052	     -2.27896156	     -1.49404841	     32.83560209	     32.83560209	     19.03459580	    -15.68998340	      5.16395875	    -10.71095197	      5.39205951	      2.02333506	      9.44157351	    -13.12188674	    -10.23825029	     26.35512021	     45.38691789	      0.00000000	      0.00000000	     15.66626129	    -14.71080199	     12.98441299	     31.83653787	     44.87862540	      0.00000000	      0.00000000
     38.18042857	     -3.51932804	     -4.83294072	     -1.40795803	      0.91737990	      0.91413723	      0.40739845	     23.59967024	     -6.34636580	     -5.65456012	     64.89368722	     64.89368722	      6.88956196	    -18.61541594	      8.23779923	     19.51406830	     -2.26384371	     -1.61603085	     33.57075449	     33.57075449	     19.66415748	    -16.06154543	      5.11580453	    -10.89353014	      5.68280044	      1.63685641	      6.12980102	    -13.11765069	    -10.30140503	     25.24629544	     45.42715417	      0.00000000	      0.00000000	     17.42309666	    -14.96355986	     12.54873328	     32.94717957	     44.98114986	      0.00000000	      0.00000000
     38.20057143	     -3.21773187	     -4.94279376	     -1.82325034	      0.91646107	      0.91328030	      0.40597923	     24.95045684	     -5.96140943	     -5.02909285	     65.27431682	     65.27431682	      7.39279621	    -18.59600605	      8.50178878	     18.95937428	     -2.30579805	     -1.81196977	     34.02152958	     34.02152958	     20.36524738	    -16.31880622	      5.19479491	    -11.25410403	      6.01195016	      1.38220432	      2.84863904	    -13.11388877	    -10.45178717	     24.36826187	     45.46714287	      0.00000000	      0.00000000	     19.20043375	    -15.27958404	     11.96945278	     34.15185081	     45.10269545	      0.00000000	      0.00000000
     38.22071429	     -3.04337046	     -5.02356820	     -2.30880544	      0.91541197	      0.91274666	      0.40487413	     26.31088277	     -5.57027291	     -4.40801472	     65.03667888	     65.03667888	      7.79142808	    -18.50386176	      8.59406424	     18.45312607	     -2.35502327	     -2.09548753	     34.28510632	     34.28510632	     20.89861538	    -16.48799088	      5.28065210	    -11.48218666	      6.29320513	      1.13271017	     -0.23761216	    -13.14448293	    -10.63747226	     23.59197098	     45.50537114	      0.00000000	      0.00000000	     20.92733245	    -15.62505321	     11.34812162	     35.41070182	     45.22183717	      0.00000000	      0.00000000
     38.24085714	     -2.93106730	     -5.11523406	     -2.81932989	      0.91438392	      0.91279507	      0.40411380	     27.49617767	     -5.16973358	     -3.91873225	     64.06148565	     64.06148565	      8.19944783	    -18.32074854	      8.50574785	     17.83372320	     -2.44870462	     -2.46070771	     34.19464619	     34.19464619	     21.26258524	    -16.57590317	      5.29562574	    -11.62311021	      6.59036801	      0.26687747	     -2.64955849	    -13.19801137	    -10.77406496	     22.91222692	     45.53156473	      0.00000000	      0.00000000	     22.33368111	    -16.47282350	     10.90792746	     36.12020624	     45.29970858	      0.00000000	      0.00000000
     38.26100000	     -2.85006307	     -5.22047374	     -3.47487855	      0.91332533	      0.91347854	      0.40384833	     28.48448754	     -4.64839029	     -3.36419214	     62.31604745	     62.31604745	      8.50099379	    -18.16137201	      8.20272287	     17.06837696	     -2.61182367	     -3.00260527	     33.80234446	     33.80234446	     21.58476556	    -16.56318589	      5.52800669	    -11.84960230	      6.85273882	      0.87836186	     -5.74591155	    -13.34510807	    -11.11627122	     22.43598570	     45.57244926	      0.00000000	      0.00000000	     24.11215149	    -16.38619994	      9.93346134	     38.17208892	     45.46072253	      0.00000000	      0.00000000
     38.28114286	     -2.93662059	     -5.29015813	     -4.13264128	      0.91217581	      0.91441432	      0.40390702	     29.34868980	     -4.25542210	     -3.06088550	     59.77455014	     59.77455014	      8.20123769	    -17.86214846	      5.66391566	     16.41798493	     -2.77609340	     -3.60784024	     33.26260697	     33.26260697	     21.85322524	    -16.38247421	      5.83149966	    -11.93951055	      7.10132929	      0.63699329	     -8.97766191	    -13.32265915	    -12.89209541	     24.81492940	     45.66472585	      0.00000000	      0.00000000	     24.94715538	    -16.70622740	      6.64086671	     41.08431643	     45.90166063	      0.00000000	      0.00000000
     38.30128571	     -3.01251692	     -5.38604289	     -4.86162824	      0.91101978	      0.91614537	      0.40443359	     29.94932604	     -3.71550374	     -2.71773128	     56.58323488	     56.58323488	      8.47661543	    -17.16225993	      5.25316268	     15.50758457	     -2.97837286	     -4.29986556	     32.26098212	     32.26098212	     21.85650348	    -16.25168690	      5.97542861	    -11.94067113	      7.32825424	      0.47695197	    -10.83089555	    -13.45961795	    -13.11019353	     24.25227054	     45.70511267	      0.00000000	      0.00000000	     26.43534663	    -17.23074430	      5.99687592	     42.14927086	     45.99981958	      0.00000000	      0.00000000
     38.32142857	     -3.17246130	     -5.45012876	     -5.63238870	      0.90985201	      0.91804592	      0.40542130	     30.31888085	     -3.22263003	     -2.54408559	     52.73717246	     52.73717246	      8.55264805	    -16.09179210	      3.66972688	     14.56787439	     -3.18727243	     -5.11496115	     31.02580556	     31.02580556	     21.69858250	    -15.96310851	      5.93077188	    -11.99765658	      7.48380367	      0.78434217	    -12.85679216	    -13.46195699	    -13.61367715	     24.25740365	     45.75121672	      0.00000000	      0.00000000	     27.88916439	    -17.64220139	      4.75398859	     44.16018522	     46.16878872	      0.00000000	      0.00000000
     38.34157143	     -3.55136107	     -5.56500754	     -6.36055171	      0.90862599	      0.91996838	      0.40667162	     30.60530688	     -2.66423935	     -2.57995644	     48.30442572	     48.30442572	      8.69281191	    -14.43363701	      3.11510669	     13.82910299	     -3.45042204	     -5.83053175	     29.72278210	     29.72278210	     21.52820737	    -15.66066475	      6.04481202	    -11.66704213	      7.73550924	      0.50960338	    -14.27563766	    -13.57524871	    -13.88747284	     24.22253528	     45.77185119	      0.00000000	      0.00000000	     29.07156937	    -18.32480301	      4.08706182	     45.28543045	     46.25969486	      0.00000000	      0.00000000
     38.36171429	     -3.80633430	     -5.60073583	     -7.13406599	      0.90751411	      0.92192360	      0.40823852	     30.28547936	     -2.23931742	     -2.85086688	     42.99990762	     42.99990762	      6.95249731	    -12.86513200	     -2.80185417	     12.84354014	     -3.64007107	     -6.74033081	     28.19244031	     28.19244031	     20.83029213	    -15.42645553	      4.89893657	    -11.67109621	      7.85801383	      0.35906474	    -16.28638662	    -13.40487765	    -15.69245389	     26.84662313	     45.84085906	      0.00000000	      0.00000000	     29.34597120	    -18.83682677	      0.61897916	     49.60537220	     46.65349245	      0.00000000	      0.00000000
     38.38185714	     -4.03475699	     -5.58423916	     -7.87220395	      0.90642265	      0.92383259	      0.41005344	     29.86464672	     -1.80094742	     -3.15366613	     37.83211321	     37.83211321	      6.85218806	     -9.91613608	     -2.96669944	     11.83760882	     -3.74074705	     -7.57687690	     26.70355264	     26.70355264	     20.63200934	    -14.96928416	      5.04150870	    -11.62452874	      7.93642898	      0.53725383	    -17.27993960	    -13.39512097	    -15.82360391	     26.57030049	     45.86546313	      0.00000000	      0.00000000	     30.92300421	    -19.46657243	      0.14916108	     50.68036524	     46.72605297	      0.00000000	      0.00000000
     38.40200000	     -4.29578025	     -5.50721287	     -8.55506713	      0.90557328	      0.92517869	      0.41211212	     29.26513661	     -1.48561004	     -3.88837739	     32.58815465	     32.58815465	      6.54237307	     -6.25798650	     -3.01872116	     10.90767909	     -3.77979369	     -8.43260088	     25.30042303	     25.30042303	     20.44908498	    -14.50017477	      4.86603700	    -11.44421260	      7.87939461	      0.76224777	    -18.26077087	    -13.27324872	    -16.10015491	     26.81561477	     45.88143632	      0.00000000	      0.00000000	     32.28717976	    -20.03341732	     -0.53005416	     52.40375478	     46.82351457	      0.00000000	      0.00000000
     38.42214286	     -4.50401540	     -5.40677751	     -9.16339316	      0.90490089	      0.92602472	      0.41434581	     28.48127755	     -1.15037239	     -4.75061881	     27.50562822	     27.50562822	      6.10047151	     -2.38842396	     -2.31492478	     10.01452075	     -3.78055761	     -9.20239192	     24.07703936	     24.07703936	     20.27423359	    -14.08661325	      4.53133761	    -11.32176756	      7.82337994	      0.87579929	    -19.06887107	    -13.13995679	    -16.41051855	     27.30864405	     45.89011807	      0.00000000	      0.00000000	     33.54165506	    -20.69415640	     -1.24924733	     54.25891994	     46.92621999	      0.00000000	      0.00000000
